<svg width="26" height="20" viewBox="0 0 26 20" fill="none" xmlns="http://www.w3.org/2000/svg">
<path d="M8.7348 13.75C13.2231 13.75 16.8598 10.6719 16.8598 6.875C16.8598 3.07812 13.2231 0 8.7348 0C4.24652 0 0.609803 3.07812 0.609803 6.875C0.609803 8.38281 1.18402 9.77734 2.15668 10.9141C2.01996 11.2812 1.81683 11.6055 1.60199 11.8789C1.41449 12.1211 1.22308 12.3086 1.08246 12.4375C1.01215 12.5 0.953553 12.5508 0.91449 12.582C0.894959 12.5977 0.879334 12.6094 0.871521 12.6133L0.863709 12.6211C0.648865 12.7812 0.555115 13.0625 0.641053 13.3164C0.72699 13.5703 0.965271 13.75 1.2348 13.75C2.08636 13.75 2.94574 13.5312 3.66058 13.2617C4.01996 13.125 4.3559 12.9727 4.64887 12.8164C5.84808 13.4102 7.24261 13.75 8.7348 13.75ZM18.1098 6.875C18.1098 11.2617 14.2387 14.5664 9.65277 14.9609C10.602 17.8672 13.7504 20 17.4848 20C18.977 20 20.3715 19.6602 21.5746 19.0664C21.8676 19.2227 22.1996 19.375 22.559 19.5117C23.2739 19.7812 24.1332 20 24.9848 20C25.2543 20 25.4965 19.8242 25.5786 19.5664C25.6606 19.3086 25.5707 19.0273 25.352 18.8672L25.3442 18.8594C25.3364 18.8516 25.3207 18.8438 25.3012 18.8281C25.2621 18.7969 25.2036 18.75 25.1332 18.6836C24.9926 18.5547 24.8012 18.3672 24.6137 18.125C24.3989 17.8516 24.1957 17.5234 24.059 17.1602C25.0317 16.0273 25.6059 14.6328 25.6059 13.1211C25.6059 9.49609 22.2895 6.52344 18.0825 6.26562C18.0981 6.46484 18.1059 6.66797 18.1059 6.87109L18.1098 6.875Z" fill="#1C1C1E"/>
</svg>
