<svg width="24" height="20" viewBox="0 0 24 20" fill="none" xmlns="http://www.w3.org/2000/svg">
<path d="M23.2578 9.98047C23.2578 10.6836 22.6719 11.2344 22.0078 11.2344H20.7578L20.7852 17.4922C20.7852 17.5977 20.7773 17.7031 20.7656 17.8086V18.4375C20.7656 19.3008 20.0664 20 19.2031 20H18.5781C18.5352 20 18.4922 20 18.4492 19.9961C18.3945 20 18.3398 20 18.2852 20H17.0156H16.0781C15.2148 20 14.5156 19.3008 14.5156 18.4375V17.5V15C14.5156 14.3086 13.957 13.75 13.2656 13.75H10.7656C10.0742 13.75 9.51562 14.3086 9.51562 15V17.5V18.4375C9.51562 19.3008 8.81641 20 7.95312 20H7.01562H5.76953C5.71094 20 5.65234 19.9961 5.59375 19.9922C5.54688 19.9961 5.5 20 5.45312 20H4.82812C3.96484 20 3.26562 19.3008 3.26562 18.4375V14.0625C3.26562 14.0273 3.26562 13.9883 3.26953 13.9531V11.2344H2.01562C1.3125 11.2344 0.765625 10.6875 0.765625 9.98047C0.765625 9.62891 0.882812 9.31641 1.15625 9.04297L11.1719 0.3125C11.4453 0.0390625 11.7578 0 12.0312 0C12.3047 0 12.6172 0.078125 12.8516 0.273438L22.8281 9.04297C23.1406 9.31641 23.2969 9.62891 23.2578 9.98047Z" fill="#FF6B6B"/>
</svg>
